<svg xmlns="http://www.w3.org/2000/svg" viewBox="-8 -8 116 116"><g fill="#c4a55a"><path d="M 54.60 39.50 C 59.60 35.50 65.80 31.10 65.00 23.40 C 64.40 13.60 53.40 6.00 50.00 4.50 C 46.60 6.00 35.60 13.60 35.00 23.40 C 34.20 31.10 40.40 35.50 45.40 39.50 Z"/><path d="M 61.41 51.13 C 66.76 54.65 72.86 59.19 79.93 56.05 C 89.07 52.45 92.90 39.64 93.27 35.94 C 90.80 33.17 80.17 25.06 70.66 27.51 C 63.09 29.13 60.82 36.39 58.56 42.38 Z"/><path d="M 52.45 61.20 C 50.76 67.37 48.33 74.58 53.50 80.34 C 59.75 87.91 73.11 87.60 76.74 86.81 C 78.61 83.60 83.05 70.98 77.77 62.70 C 73.89 56.00 66.29 56.09 59.89 55.79 Z"/><path d="M 40.11 55.79 C 33.71 56.09 26.11 56.00 22.23 62.70 C 16.95 70.98 21.39 83.60 23.26 86.81 C 26.89 87.60 40.25 87.91 46.50 80.34 C 51.67 74.58 49.24 67.37 47.55 61.20 Z"/><path d="M 41.44 42.38 C 39.18 36.39 36.91 29.13 29.34 27.51 C 19.83 25.06 9.20 33.17 6.73 35.94 C 7.10 39.64 10.93 52.45 20.07 56.05 C 27.14 59.19 33.24 54.65 38.59 51.13 Z"/></g><circle cx="50" cy="50" r="10" fill="#4a1f6e"/><circle cx="50" cy="50" r="4" fill="#c4a55a"/></svg>