<svg xmlns="http://www.w3.org/2000/svg" viewBox="3.65 19.05 256.87 87.10" role="img" aria-label="Sekar — funeral companions"><title>Sekar — funeral companions</title>
<g fill="#4a1f6e">
<g fill-rule="evenodd" transform="translate(6,24) scale(0.84)"><path d="M 54.60 39.50 C 59.60 35.50 65.80 31.10 65.00 23.40 C 64.40 13.60 53.40 6.00 50.00 4.50 C 46.60 6.00 35.60 13.60 35.00 23.40 C 34.20 31.10 40.40 35.50 45.40 39.50 Z"/><path d="M 61.41 51.13 C 66.76 54.65 72.86 59.19 79.93 56.05 C 89.07 52.45 92.90 39.64 93.27 35.94 C 90.80 33.17 80.17 25.06 70.66 27.51 C 63.09 29.13 60.82 36.39 58.56 42.38 Z"/><path d="M 52.45 61.20 C 50.76 67.37 48.33 74.58 53.50 80.34 C 59.75 87.91 73.11 87.60 76.74 86.81 C 78.61 83.60 83.05 70.98 77.77 62.70 C 73.89 56.00 66.29 56.09 59.89 55.79 Z"/><path d="M 40.11 55.79 C 33.71 56.09 26.11 56.00 22.23 62.70 C 16.95 70.98 21.39 83.60 23.26 86.81 C 26.89 87.60 40.25 87.91 46.50 80.34 C 51.67 74.58 49.24 67.37 47.55 61.20 Z"/><path d="M 41.44 42.38 C 39.18 36.39 36.91 29.13 29.34 27.51 C 19.83 25.06 9.20 33.17 6.73 35.94 C 7.10 39.64 10.93 52.45 20.07 56.05 C 27.14 59.19 33.24 54.65 38.59 51.13 Z"/><circle cx="50" cy="50" r="6.5"/></g>
<path d="M122.17 39.88Q122.17 42.30 123.41 44.07Q124.65 45.84 126.60 47.26Q128.55 48.69 130.72 50.05Q133.08 51.48 135.22 53.09Q137.36 54.70 138.75 56.78Q140.15 58.86 140.15 61.83Q140.15 65.06 138.47 67.50Q136.80 69.95 133.85 71.35Q130.91 72.74 126.94 72.74Q125.27 72.74 123.44 72.43Q121.61 72.12 120.03 71.57Q118.45 71.01 117.46 70.39Q117.21 70.20 117.05 69.95Q116.90 69.71 116.84 69.21L116.46 59.85Q116.40 59.54 116.74 59.51Q117.08 59.48 117.15 59.72Q117.89 61.58 118.91 63.66Q119.94 65.74 121.30 67.47Q122.66 69.21 124.43 70.30Q126.20 71.38 128.49 71.38Q130.10 71.38 131.53 70.82Q132.96 70.26 133.89 68.87Q134.82 67.47 134.82 65.06Q134.82 62.14 133.48 60.06Q132.15 57.99 130.10 56.44Q128.06 54.89 125.83 53.52Q123.66 52.10 121.67 50.61Q119.69 49.12 118.42 47.17Q117.15 45.22 117.15 42.43Q117.15 39.02 119.01 36.85Q120.87 34.68 123.75 33.62Q126.63 32.57 129.67 32.57Q131.72 32.57 133.82 32.94Q135.93 33.31 137.42 33.99Q137.98 34.18 138.16 34.49Q138.35 34.80 138.35 35.17L138.47 43.54Q138.47 43.79 138.19 43.85Q137.92 43.91 137.79 43.73Q137.48 42.80 136.86 41.16Q136.24 39.51 135.13 37.84Q134.01 36.16 132.34 34.99Q130.66 33.81 128.24 33.81Q126.38 33.81 125.02 34.55Q123.66 35.30 122.91 36.63Q122.17 37.96 122.17 39.88ZM157.62 72.74Q153.71 72.74 150.98 71.07Q148.25 69.40 146.86 66.64Q145.46 63.88 145.46 60.78Q145.46 57.06 147.26 54.08Q149.06 51.11 152.16 49.31Q155.26 47.51 159.17 47.51Q162.82 47.51 164.87 49.25Q166.92 50.98 166.92 54.64Q166.92 55.45 166.79 55.94Q166.67 56.44 166.23 56.44L161.15 56.44Q161.34 52.84 160.31 50.80Q159.29 48.75 156.93 48.75Q154.14 48.75 152.56 51.32Q150.98 53.90 150.98 58.17Q150.98 61.77 152.10 64.41Q153.21 67.04 155.38 68.53Q157.55 70.02 160.72 70.02Q162.64 70.02 163.94 69.49Q165.24 68.96 166.73 68.16Q166.85 68.03 167.07 68.28Q167.29 68.53 167.16 68.71Q164.93 70.88 162.61 71.81Q160.28 72.74 157.62 72.74ZM149.18 56.50L149.12 55.45L162.89 55.20L162.89 56.44ZM170.54 72.00Q170.35 72.00 170.35 71.63Q170.35 71.26 170.54 71.26Q172.58 71.26 173.33 70.39Q174.07 69.52 174.07 66.98L174.07 35.30Q174.07 33.13 173.67 32.16Q173.27 31.20 172.21 31.20Q171.28 31.20 169.67 31.95Q169.48 32.01 169.30 31.64Q169.11 31.27 169.30 31.20L177.85 27.11Q178.04 27.05 178.16 27.05Q178.47 27.05 178.75 27.30Q179.03 27.55 179.03 27.73L179.03 66.98Q179.03 69.52 179.75 70.39Q180.46 71.26 182.57 71.26Q182.81 71.26 182.81 71.63Q182.81 72.00 182.57 72.00Q181.39 72.00 179.87 71.94Q178.35 71.88 176.55 71.88Q174.82 71.88 173.27 71.94Q171.72 72.00 170.54 72.00ZM186.10 72.00Q185.98 72.00 185.98 71.63Q185.98 71.26 186.10 71.26Q187.96 71.26 188.49 70.57Q189.01 69.89 188.15 68.71L180.52 58.73L184.24 55.88L192.73 66.98Q194.53 69.33 196.21 70.30Q197.88 71.26 199.62 71.26Q199.80 71.26 199.80 71.63Q199.80 72.00 199.62 72.00Q198.44 72.00 196.89 71.94Q195.34 71.88 193.60 71.88Q191.12 71.88 189.36 71.94Q187.59 72.00 186.10 72.00ZM177.17 62.39L176.86 61.46L185.67 53.46Q187.65 51.79 187.40 50.30Q187.15 48.81 184.67 48.81Q184.49 48.81 184.49 48.44Q184.49 48.07 184.67 48.07Q186.22 48.07 187.84 48.13Q189.45 48.19 192.11 48.19Q194.59 48.19 196.08 48.13Q197.57 48.07 198.87 48.07Q199.06 48.07 199.06 48.44Q199.06 48.81 198.87 48.81Q197.38 48.81 195.37 49.31Q193.35 49.80 191.25 50.92Q189.14 52.04 187.15 53.77ZM219.21 72.37Q218.96 72.50 218.65 72.50Q217.66 72.50 216.67 71.07Q215.67 69.64 215.67 66.92L215.67 56.00Q215.67 52.10 214.90 50.36Q214.12 48.63 212.45 48.63Q210.90 48.63 210.06 49.52Q209.23 50.42 208.85 51.57Q208.48 52.72 208.42 53.52Q208.23 55.07 207.46 55.88Q206.68 56.69 205.26 56.69Q203.83 56.69 203.21 56.03Q202.59 55.38 202.59 54.52Q202.59 53.15 203.86 51.88Q205.13 50.61 207.09 49.62Q209.04 48.63 211.15 48.04Q213.26 47.45 214.87 47.45Q217.41 47.45 219.05 49.06Q220.70 50.67 220.70 54.14L220.70 65.30Q220.70 67.23 221.32 68.22Q221.94 69.21 223.11 69.21Q224.11 69.21 225.35 68.65Q225.66 68.53 225.78 68.87Q225.90 69.21 225.59 69.33ZM207.55 72.43Q204.95 72.43 203.68 71.19Q202.41 69.95 202.41 68.03Q202.41 66.30 203.34 65.21Q204.27 64.13 205.94 63.41Q207.61 62.70 209.66 61.96L216.29 59.48L216.48 60.41L211.95 62.33Q211.21 62.58 210.34 63.04Q209.47 63.51 208.89 64.25Q208.30 64.99 208.30 66.23Q208.30 67.72 209.29 68.62Q210.28 69.52 211.52 69.52Q212.08 69.52 212.64 69.36Q213.19 69.21 213.94 68.71L217.29 66.48L217.35 67.41L212.95 70.51Q211.52 71.50 210.31 71.97Q209.10 72.43 207.55 72.43ZM235.23 55.20L234.80 54.45Q237.15 51.66 238.80 50.14Q240.44 48.63 241.56 48.04Q242.67 47.45 243.66 47.45Q244.97 47.45 246.30 48.35Q247.63 49.25 247.63 50.61Q247.63 51.73 246.95 52.47Q246.27 53.21 245.03 53.21Q243.91 53.21 243.29 52.59Q242.67 51.97 242.11 51.42Q241.56 50.86 240.56 50.86Q240.07 50.86 239.51 51.14Q238.95 51.42 237.96 52.35Q236.97 53.28 235.23 55.20ZM228.16 72.00Q227.98 72.00 227.98 71.63Q227.98 71.26 228.16 71.26Q230.27 71.26 230.95 70.39Q231.64 69.52 231.64 66.98L231.64 55.14Q231.64 53.15 231.20 52.22Q230.77 51.29 229.65 51.29Q229.09 51.29 228.29 51.54Q227.48 51.79 226.55 52.22Q226.30 52.28 226.15 51.94Q225.99 51.60 226.18 51.54L234.30 47.57Q234.61 47.45 234.74 47.45Q235.36 47.45 236.01 48.87Q236.66 50.30 236.66 53.03L236.66 66.98Q236.66 68.65 237.15 69.61Q237.65 70.57 238.89 70.92Q240.13 71.26 242.36 71.26Q242.61 71.26 242.61 71.63Q242.61 72.00 242.36 72.00Q240.75 72.00 238.67 71.94Q236.60 71.88 234.18 71.88Q232.50 71.88 230.92 71.94Q229.34 72.00 228.16 72.00Z"/>
<path d="M112.97 98.00L112.97 89.27L118.40 89.27L118.40 90.42L114.30 90.42L114.30 93.22L118.01 93.22L118.01 94.37L114.30 94.37L114.30 98.00ZM123.52 98.13Q122.47 98.13 121.68 97.73Q120.90 97.33 120.47 96.62Q120.04 95.91 120.04 95.00L120.04 89.27L121.37 89.27L121.37 94.89Q121.37 95.48 121.63 95.94Q121.89 96.39 122.37 96.66Q122.86 96.92 123.52 96.92Q124.17 96.92 124.65 96.66Q125.13 96.39 125.39 95.94Q125.64 95.48 125.64 94.89L125.64 89.27L126.99 89.27L126.99 95.00Q126.99 95.91 126.56 96.62Q126.12 97.33 125.34 97.73Q124.56 98.13 123.52 98.13ZM128.92 98.00L128.92 89.27L130.46 89.27L133.75 94.47Q133.91 94.72 134.12 95.08Q134.32 95.44 134.55 95.89Q134.78 96.34 135.00 96.86L134.84 96.86Q134.78 96.37 134.76 95.88Q134.73 95.39 134.72 94.96Q134.71 94.53 134.71 94.24L134.71 89.27L136.06 89.27L136.06 98.00L134.51 98.00L131.57 93.35Q131.33 92.97 131.11 92.59Q130.88 92.20 130.61 91.69Q130.34 91.19 129.94 90.46L130.15 90.46Q130.18 91.10 130.21 91.66Q130.24 92.22 130.26 92.65Q130.27 93.08 130.27 93.34L130.27 98.00ZM137.99 98.00L137.99 89.27L143.49 89.27L143.49 90.42L139.33 90.42L139.33 93.02L143.19 93.02L143.19 94.16L139.33 94.16L139.33 96.85L143.53 96.85L143.53 98.00ZM145.23 98.00L145.23 89.27L148.36 89.27Q149.37 89.27 150.04 89.62Q150.72 89.97 151.05 90.59Q151.38 91.21 151.38 92.01Q151.38 92.82 151.05 93.43Q150.71 94.03 150.04 94.37Q149.36 94.70 148.35 94.70L146.00 94.70L146.00 93.56L148.22 93.56Q148.87 93.56 149.26 93.37Q149.66 93.19 149.84 92.84Q150.03 92.50 150.03 92.01Q150.03 91.52 149.84 91.16Q149.66 90.80 149.26 90.61Q148.86 90.41 148.21 90.41L146.57 90.41L146.57 98.00ZM150.20 98.00L148.08 94.06L149.56 94.06L151.71 98.00ZM152.34 98.00L155.45 89.27L157.09 89.27L160.25 98.00L158.80 98.00L157.10 93.14Q156.90 92.55 156.67 91.75Q156.43 90.95 156.12 89.82L156.39 89.82Q156.09 90.96 155.85 91.77Q155.62 92.58 155.43 93.14L153.79 98.00ZM154.02 95.70L154.02 94.58L158.56 94.58L158.56 95.70ZM161.51 98.00L161.51 89.27L162.85 89.27L162.85 96.85L166.80 96.85L166.80 98.00ZM175.12 98.12Q173.99 98.12 173.10 97.58Q172.21 97.04 171.70 96.04Q171.19 95.04 171.19 93.64Q171.19 92.24 171.70 91.24Q172.21 90.23 173.10 89.69Q173.99 89.15 175.12 89.15Q175.82 89.15 176.42 89.35Q177.03 89.55 177.51 89.93Q177.98 90.31 178.30 90.86Q178.61 91.40 178.72 92.09L177.38 92.09Q177.30 91.68 177.09 91.36Q176.88 91.04 176.58 90.82Q176.28 90.59 175.91 90.48Q175.55 90.37 175.14 90.37Q174.39 90.37 173.79 90.75Q173.20 91.13 172.86 91.86Q172.52 92.59 172.52 93.64Q172.52 94.70 172.86 95.42Q173.21 96.15 173.80 96.53Q174.39 96.90 175.14 96.90Q175.55 96.90 175.91 96.78Q176.28 96.67 176.58 96.45Q176.88 96.23 177.09 95.91Q177.30 95.59 177.38 95.18L178.73 95.18Q178.63 95.82 178.32 96.36Q178.02 96.89 177.54 97.29Q177.07 97.69 176.46 97.90Q175.84 98.12 175.12 98.12ZM183.94 98.12Q182.81 98.12 181.91 97.58Q181.02 97.04 180.51 96.04Q179.99 95.04 179.99 93.64Q179.99 92.24 180.51 91.24Q181.02 90.23 181.91 89.69Q182.81 89.15 183.94 89.15Q185.07 89.15 185.96 89.69Q186.84 90.23 187.36 91.24Q187.87 92.24 187.87 93.64Q187.87 95.04 187.36 96.04Q186.84 97.04 185.96 97.58Q185.07 98.12 183.94 98.12ZM183.94 96.90Q184.68 96.90 185.27 96.53Q185.86 96.15 186.20 95.42Q186.55 94.70 186.55 93.64Q186.55 92.57 186.20 91.84Q185.86 91.12 185.27 90.74Q184.68 90.37 183.94 90.37Q183.19 90.37 182.60 90.75Q182.00 91.12 181.66 91.85Q181.32 92.58 181.32 93.64Q181.32 94.70 181.66 95.42Q182.00 96.15 182.60 96.52Q183.19 96.90 183.94 96.90ZM189.50 98.00L189.50 89.27L191.47 89.27L193.37 94.28Q193.45 94.50 193.56 94.84Q193.66 95.18 193.77 95.58Q193.88 95.98 193.98 96.37Q194.08 96.75 194.16 97.06L193.88 97.06Q193.95 96.77 194.05 96.39Q194.15 96.00 194.26 95.60Q194.37 95.21 194.48 94.85Q194.58 94.50 194.67 94.28L196.54 89.27L198.52 89.27L198.52 98.00L197.19 98.00L197.19 93.30Q197.19 93.03 197.20 92.66Q197.20 92.28 197.21 91.86Q197.22 91.44 197.23 91.02Q197.24 90.59 197.24 90.20L197.34 90.20Q197.23 90.62 197.09 91.08Q196.95 91.53 196.82 91.95Q196.69 92.38 196.57 92.72Q196.45 93.07 196.37 93.30L194.58 98.00L193.44 98.00L191.63 93.30Q191.54 93.08 191.42 92.74Q191.31 92.39 191.17 91.97Q191.04 91.55 190.90 91.10Q190.76 90.65 190.62 90.20L190.73 90.20Q190.75 90.55 190.76 90.97Q190.76 91.39 190.77 91.82Q190.78 92.25 190.79 92.63Q190.80 93.01 190.80 93.30L190.80 98.00ZM200.45 98.00L200.45 89.27L203.58 89.27Q204.59 89.27 205.26 89.64Q205.94 90.02 206.27 90.66Q206.60 91.30 206.60 92.11Q206.60 92.91 206.27 93.56Q205.93 94.20 205.26 94.57Q204.58 94.94 203.57 94.94L201.43 94.94L201.43 93.81L203.44 93.81Q204.08 93.81 204.48 93.59Q204.88 93.37 205.07 92.98Q205.25 92.59 205.25 92.11Q205.25 91.61 205.07 91.23Q204.88 90.85 204.48 90.63Q204.08 90.41 203.43 90.41L201.79 90.41L201.79 98.00ZM206.56 98.00L209.67 89.27L211.31 89.27L214.47 98.00L213.03 98.00L211.33 93.14Q211.13 92.55 210.89 91.75Q210.65 90.95 210.34 89.82L210.61 89.82Q210.31 90.96 210.08 91.77Q209.84 92.58 209.66 93.14L208.01 98.00ZM208.25 95.70L208.25 94.58L212.79 94.58L212.79 95.70ZM215.74 98.00L215.74 89.27L217.28 89.27L220.57 94.47Q220.73 94.72 220.94 95.08Q221.14 95.44 221.37 95.89Q221.60 96.34 221.82 96.86L221.66 96.86Q221.60 96.37 221.58 95.88Q221.55 95.39 221.54 94.96Q221.53 94.53 221.53 94.24L221.53 89.27L222.88 89.27L222.88 98.00L221.33 98.00L218.39 93.35Q218.15 92.97 217.93 92.59Q217.70 92.20 217.43 91.69Q217.16 91.19 216.76 90.46L216.97 90.46Q217.00 91.10 217.03 91.66Q217.06 92.22 217.08 92.65Q217.09 93.08 217.09 93.34L217.09 98.00ZM226.15 89.27L226.15 98.00L224.81 98.00L224.81 89.27ZM231.72 98.12Q230.59 98.12 229.70 97.58Q228.81 97.04 228.29 96.04Q227.78 95.04 227.78 93.64Q227.78 92.24 228.29 91.24Q228.81 90.23 229.70 89.69Q230.59 89.15 231.72 89.15Q232.85 89.15 233.74 89.69Q234.63 90.23 235.14 91.24Q235.66 92.24 235.66 93.64Q235.66 95.04 235.14 96.04Q234.63 97.04 233.74 97.58Q232.85 98.12 231.72 98.12ZM231.72 96.90Q232.47 96.90 233.06 96.53Q233.65 96.15 233.99 95.42Q234.33 94.70 234.33 93.64Q234.33 92.57 233.99 91.84Q233.65 91.12 233.06 90.74Q232.47 90.37 231.72 90.37Q230.97 90.37 230.38 90.75Q229.79 91.12 229.45 91.85Q229.10 92.58 229.10 93.64Q229.10 94.70 229.45 95.42Q229.79 96.15 230.38 96.52Q230.97 96.90 231.72 96.90ZM237.28 98.00L237.28 89.27L238.83 89.27L242.11 94.47Q242.28 94.72 242.48 95.08Q242.69 95.44 242.92 95.89Q243.14 96.34 243.37 96.86L243.20 96.86Q243.15 96.37 243.12 95.88Q243.10 95.39 243.09 94.96Q243.07 94.53 243.07 94.24L243.07 89.27L244.43 89.27L244.43 98.00L242.88 98.00L239.93 93.35Q239.70 92.97 239.47 92.59Q239.25 92.20 238.97 91.69Q238.70 91.19 238.31 90.46L238.52 90.46Q238.55 91.10 238.58 91.66Q238.61 92.22 238.62 92.65Q238.64 93.08 238.64 93.34L238.64 98.00ZM249.29 98.15Q248.31 98.15 247.59 97.84Q246.87 97.53 246.46 96.95Q246.06 96.37 246.01 95.57L247.36 95.57Q247.40 96.05 247.66 96.36Q247.93 96.67 248.36 96.82Q248.79 96.97 249.28 96.97Q249.84 96.97 250.27 96.80Q250.70 96.63 250.95 96.31Q251.21 95.99 251.21 95.57Q251.21 95.19 250.99 94.94Q250.77 94.70 250.39 94.54Q250.02 94.38 249.55 94.26L248.53 93.97Q247.46 93.69 246.86 93.13Q246.25 92.56 246.25 91.67Q246.25 90.91 246.66 90.34Q247.07 89.78 247.77 89.47Q248.47 89.15 249.35 89.15Q250.24 89.15 250.93 89.47Q251.61 89.78 252.00 90.32Q252.39 90.87 252.41 91.57L251.11 91.57Q251.04 90.97 250.55 90.64Q250.06 90.31 249.32 90.31Q248.79 90.31 248.40 90.48Q248.01 90.64 247.80 90.93Q247.58 91.22 247.58 91.59Q247.58 92.01 247.84 92.26Q248.09 92.52 248.46 92.67Q248.83 92.81 249.16 92.90L250.01 93.13Q250.43 93.23 250.87 93.41Q251.31 93.59 251.69 93.87Q252.06 94.16 252.29 94.58Q252.52 94.99 252.52 95.59Q252.52 96.32 252.14 96.90Q251.76 97.48 251.04 97.82Q250.32 98.15 249.29 98.15Z"/>
</g></svg>
