<svg xmlns="http://www.w3.org/2000/svg" viewBox="3.65 19.05 278.99 87.07" role="img" aria-label="Sekar — pendamping pemakaman"><title>Sekar — pendamping pemakaman</title>
<g fill="#4a1f6e">
<g fill-rule="evenodd" transform="translate(6,24) scale(0.84)"><path d="M 54.60 39.50 C 59.60 35.50 65.80 31.10 65.00 23.40 C 64.40 13.60 53.40 6.00 50.00 4.50 C 46.60 6.00 35.60 13.60 35.00 23.40 C 34.20 31.10 40.40 35.50 45.40 39.50 Z"/><path d="M 61.41 51.13 C 66.76 54.65 72.86 59.19 79.93 56.05 C 89.07 52.45 92.90 39.64 93.27 35.94 C 90.80 33.17 80.17 25.06 70.66 27.51 C 63.09 29.13 60.82 36.39 58.56 42.38 Z"/><path d="M 52.45 61.20 C 50.76 67.37 48.33 74.58 53.50 80.34 C 59.75 87.91 73.11 87.60 76.74 86.81 C 78.61 83.60 83.05 70.98 77.77 62.70 C 73.89 56.00 66.29 56.09 59.89 55.79 Z"/><path d="M 40.11 55.79 C 33.71 56.09 26.11 56.00 22.23 62.70 C 16.95 70.98 21.39 83.60 23.26 86.81 C 26.89 87.60 40.25 87.91 46.50 80.34 C 51.67 74.58 49.24 67.37 47.55 61.20 Z"/><path d="M 41.44 42.38 C 39.18 36.39 36.91 29.13 29.34 27.51 C 19.83 25.06 9.20 33.17 6.73 35.94 C 7.10 39.64 10.93 52.45 20.07 56.05 C 27.14 59.19 33.24 54.65 38.59 51.13 Z"/><circle cx="50" cy="50" r="6.5"/></g>
<path d="M122.17 39.88Q122.17 42.30 123.41 44.07Q124.65 45.84 126.60 47.26Q128.55 48.69 130.72 50.05Q133.08 51.48 135.22 53.09Q137.36 54.70 138.75 56.78Q140.15 58.86 140.15 61.83Q140.15 65.06 138.47 67.50Q136.80 69.95 133.85 71.35Q130.91 72.74 126.94 72.74Q125.27 72.74 123.44 72.43Q121.61 72.12 120.03 71.57Q118.45 71.01 117.46 70.39Q117.21 70.20 117.05 69.95Q116.90 69.71 116.84 69.21L116.46 59.85Q116.40 59.54 116.74 59.51Q117.08 59.48 117.15 59.72Q117.89 61.58 118.91 63.66Q119.94 65.74 121.30 67.47Q122.66 69.21 124.43 70.30Q126.20 71.38 128.49 71.38Q130.10 71.38 131.53 70.82Q132.96 70.26 133.89 68.87Q134.82 67.47 134.82 65.06Q134.82 62.14 133.48 60.06Q132.15 57.99 130.10 56.44Q128.06 54.89 125.83 53.52Q123.66 52.10 121.67 50.61Q119.69 49.12 118.42 47.17Q117.15 45.22 117.15 42.43Q117.15 39.02 119.01 36.85Q120.87 34.68 123.75 33.62Q126.63 32.57 129.67 32.57Q131.72 32.57 133.82 32.94Q135.93 33.31 137.42 33.99Q137.98 34.18 138.16 34.49Q138.35 34.80 138.35 35.17L138.47 43.54Q138.47 43.79 138.19 43.85Q137.92 43.91 137.79 43.73Q137.48 42.80 136.86 41.16Q136.24 39.51 135.13 37.84Q134.01 36.16 132.34 34.99Q130.66 33.81 128.24 33.81Q126.38 33.81 125.02 34.55Q123.66 35.30 122.91 36.63Q122.17 37.96 122.17 39.88ZM157.62 72.74Q153.71 72.74 150.98 71.07Q148.25 69.40 146.86 66.64Q145.46 63.88 145.46 60.78Q145.46 57.06 147.26 54.08Q149.06 51.11 152.16 49.31Q155.26 47.51 159.17 47.51Q162.82 47.51 164.87 49.25Q166.92 50.98 166.92 54.64Q166.92 55.45 166.79 55.94Q166.67 56.44 166.23 56.44L161.15 56.44Q161.34 52.84 160.31 50.80Q159.29 48.75 156.93 48.75Q154.14 48.75 152.56 51.32Q150.98 53.90 150.98 58.17Q150.98 61.77 152.10 64.41Q153.21 67.04 155.38 68.53Q157.55 70.02 160.72 70.02Q162.64 70.02 163.94 69.49Q165.24 68.96 166.73 68.16Q166.85 68.03 167.07 68.28Q167.29 68.53 167.16 68.71Q164.93 70.88 162.61 71.81Q160.28 72.74 157.62 72.74ZM149.18 56.50L149.12 55.45L162.89 55.20L162.89 56.44ZM170.54 72.00Q170.35 72.00 170.35 71.63Q170.35 71.26 170.54 71.26Q172.58 71.26 173.33 70.39Q174.07 69.52 174.07 66.98L174.07 35.30Q174.07 33.13 173.67 32.16Q173.27 31.20 172.21 31.20Q171.28 31.20 169.67 31.95Q169.48 32.01 169.30 31.64Q169.11 31.27 169.30 31.20L177.85 27.11Q178.04 27.05 178.16 27.05Q178.47 27.05 178.75 27.30Q179.03 27.55 179.03 27.73L179.03 66.98Q179.03 69.52 179.75 70.39Q180.46 71.26 182.57 71.26Q182.81 71.26 182.81 71.63Q182.81 72.00 182.57 72.00Q181.39 72.00 179.87 71.94Q178.35 71.88 176.55 71.88Q174.82 71.88 173.27 71.94Q171.72 72.00 170.54 72.00ZM186.10 72.00Q185.98 72.00 185.98 71.63Q185.98 71.26 186.10 71.26Q187.96 71.26 188.49 70.57Q189.01 69.89 188.15 68.71L180.52 58.73L184.24 55.88L192.73 66.98Q194.53 69.33 196.21 70.30Q197.88 71.26 199.62 71.26Q199.80 71.26 199.80 71.63Q199.80 72.00 199.62 72.00Q198.44 72.00 196.89 71.94Q195.34 71.88 193.60 71.88Q191.12 71.88 189.36 71.94Q187.59 72.00 186.10 72.00ZM177.17 62.39L176.86 61.46L185.67 53.46Q187.65 51.79 187.40 50.30Q187.15 48.81 184.67 48.81Q184.49 48.81 184.49 48.44Q184.49 48.07 184.67 48.07Q186.22 48.07 187.84 48.13Q189.45 48.19 192.11 48.19Q194.59 48.19 196.08 48.13Q197.57 48.07 198.87 48.07Q199.06 48.07 199.06 48.44Q199.06 48.81 198.87 48.81Q197.38 48.81 195.37 49.31Q193.35 49.80 191.25 50.92Q189.14 52.04 187.15 53.77ZM219.21 72.37Q218.96 72.50 218.65 72.50Q217.66 72.50 216.67 71.07Q215.67 69.64 215.67 66.92L215.67 56.00Q215.67 52.10 214.90 50.36Q214.12 48.63 212.45 48.63Q210.90 48.63 210.06 49.52Q209.23 50.42 208.85 51.57Q208.48 52.72 208.42 53.52Q208.23 55.07 207.46 55.88Q206.68 56.69 205.26 56.69Q203.83 56.69 203.21 56.03Q202.59 55.38 202.59 54.52Q202.59 53.15 203.86 51.88Q205.13 50.61 207.09 49.62Q209.04 48.63 211.15 48.04Q213.26 47.45 214.87 47.45Q217.41 47.45 219.05 49.06Q220.70 50.67 220.70 54.14L220.70 65.30Q220.70 67.23 221.32 68.22Q221.94 69.21 223.11 69.21Q224.11 69.21 225.35 68.65Q225.66 68.53 225.78 68.87Q225.90 69.21 225.59 69.33ZM207.55 72.43Q204.95 72.43 203.68 71.19Q202.41 69.95 202.41 68.03Q202.41 66.30 203.34 65.21Q204.27 64.13 205.94 63.41Q207.61 62.70 209.66 61.96L216.29 59.48L216.48 60.41L211.95 62.33Q211.21 62.58 210.34 63.04Q209.47 63.51 208.89 64.25Q208.30 64.99 208.30 66.23Q208.30 67.72 209.29 68.62Q210.28 69.52 211.52 69.52Q212.08 69.52 212.64 69.36Q213.19 69.21 213.94 68.71L217.29 66.48L217.35 67.41L212.95 70.51Q211.52 71.50 210.31 71.97Q209.10 72.43 207.55 72.43ZM235.23 55.20L234.80 54.45Q237.15 51.66 238.80 50.14Q240.44 48.63 241.56 48.04Q242.67 47.45 243.66 47.45Q244.97 47.45 246.30 48.35Q247.63 49.25 247.63 50.61Q247.63 51.73 246.95 52.47Q246.27 53.21 245.03 53.21Q243.91 53.21 243.29 52.59Q242.67 51.97 242.11 51.42Q241.56 50.86 240.56 50.86Q240.07 50.86 239.51 51.14Q238.95 51.42 237.96 52.35Q236.97 53.28 235.23 55.20ZM228.16 72.00Q227.98 72.00 227.98 71.63Q227.98 71.26 228.16 71.26Q230.27 71.26 230.95 70.39Q231.64 69.52 231.64 66.98L231.64 55.14Q231.64 53.15 231.20 52.22Q230.77 51.29 229.65 51.29Q229.09 51.29 228.29 51.54Q227.48 51.79 226.55 52.22Q226.30 52.28 226.15 51.94Q225.99 51.60 226.18 51.54L234.30 47.57Q234.61 47.45 234.74 47.45Q235.36 47.45 236.01 48.87Q236.66 50.30 236.66 53.03L236.66 66.98Q236.66 68.65 237.15 69.61Q237.65 70.57 238.89 70.92Q240.13 71.26 242.36 71.26Q242.61 71.26 242.61 71.63Q242.61 72.00 242.36 72.00Q240.75 72.00 238.67 71.94Q236.60 71.88 234.18 71.88Q232.50 71.88 230.92 71.94Q229.34 72.00 228.16 72.00Z"/>
<path d="M112.97 98.00L112.97 89.27L116.10 89.27Q117.10 89.27 117.78 89.64Q118.45 90.02 118.79 90.66Q119.12 91.30 119.12 92.11Q119.12 92.91 118.78 93.56Q118.45 94.20 117.77 94.57Q117.10 94.94 116.08 94.94L113.95 94.94L113.95 93.81L115.96 93.81Q116.60 93.81 117.00 93.59Q117.40 93.37 117.58 92.98Q117.77 92.59 117.77 92.11Q117.77 91.61 117.58 91.23Q117.40 90.85 117.00 90.63Q116.59 90.41 115.94 90.41L114.30 90.41L114.30 98.00ZM120.67 98.00L120.67 89.27L126.16 89.27L126.16 90.42L122.00 90.42L122.00 93.02L125.87 93.02L125.87 94.16L122.00 94.16L122.00 96.85L126.20 96.85L126.20 98.00ZM127.91 98.00L127.91 89.27L129.45 89.27L132.74 94.47Q132.90 94.72 133.10 95.08Q133.31 95.44 133.54 95.89Q133.77 96.34 133.99 96.86L133.82 96.86Q133.77 96.37 133.75 95.88Q133.72 95.39 133.71 94.96Q133.70 94.53 133.70 94.24L133.70 89.27L135.05 89.27L135.05 98.00L133.50 98.00L130.56 93.35Q130.32 92.97 130.10 92.59Q129.87 92.20 129.60 91.69Q129.32 91.19 128.93 90.46L129.14 90.46Q129.17 91.10 129.20 91.66Q129.23 92.22 129.25 92.65Q129.26 93.08 129.26 93.34L129.26 98.00ZM139.82 98.00L137.66 98.00L137.66 96.83L139.75 96.83Q140.74 96.83 141.39 96.46Q142.05 96.09 142.38 95.37Q142.71 94.65 142.71 93.62Q142.71 92.60 142.38 91.89Q142.06 91.18 141.42 90.81Q140.77 90.44 139.82 90.44L137.62 90.44L137.62 89.27L139.91 89.27Q141.20 89.27 142.12 89.79Q143.04 90.31 143.53 91.29Q144.02 92.26 144.02 93.62Q144.02 94.99 143.52 95.97Q143.03 96.95 142.09 97.47Q141.15 98.00 139.82 98.00ZM138.32 89.27L138.32 98.00L136.98 98.00L136.98 89.27ZM144.54 98.00L147.64 89.27L149.28 89.27L152.45 98.00L151.00 98.00L149.30 93.14Q149.10 92.55 148.86 91.75Q148.63 90.95 148.31 89.82L148.58 89.82Q148.29 90.96 148.05 91.77Q147.81 92.58 147.63 93.14L145.98 98.00ZM146.22 95.70L146.22 94.58L150.76 94.58L150.76 95.70ZM153.71 98.00L153.71 89.27L155.68 89.27L157.58 94.28Q157.66 94.50 157.77 94.84Q157.87 95.18 157.98 95.58Q158.09 95.98 158.19 96.37Q158.29 96.75 158.37 97.06L158.09 97.06Q158.16 96.77 158.26 96.39Q158.36 96.00 158.47 95.60Q158.58 95.21 158.69 94.85Q158.80 94.50 158.88 94.28L160.75 89.27L162.73 89.27L162.73 98.00L161.40 98.00L161.40 93.30Q161.40 93.03 161.41 92.66Q161.41 92.28 161.42 91.86Q161.43 91.44 161.44 91.02Q161.45 90.59 161.46 90.20L161.56 90.20Q161.44 90.62 161.30 91.08Q161.16 91.53 161.03 91.95Q160.90 92.38 160.78 92.72Q160.66 93.07 160.58 93.30L158.79 98.00L157.65 98.00L155.84 93.30Q155.75 93.08 155.63 92.74Q155.52 92.39 155.39 91.97Q155.25 91.55 155.11 91.10Q154.97 90.65 154.83 90.20L154.95 90.20Q154.96 90.55 154.97 90.97Q154.97 91.39 154.98 91.82Q154.99 92.25 155.00 92.63Q155.01 93.01 155.01 93.30L155.01 98.00ZM164.66 98.00L164.66 89.27L167.79 89.27Q168.80 89.27 169.47 89.64Q170.15 90.02 170.48 90.66Q170.82 91.30 170.82 92.11Q170.82 92.91 170.48 93.56Q170.14 94.20 169.47 94.57Q168.79 94.94 167.78 94.94L165.64 94.94L165.64 93.81L167.65 93.81Q168.30 93.81 168.69 93.59Q169.09 93.37 169.28 92.98Q169.46 92.59 169.46 92.11Q169.46 91.61 169.28 91.23Q169.09 90.85 168.69 90.63Q168.29 90.41 167.64 90.41L166.00 90.41L166.00 98.00ZM173.70 89.27L173.70 98.00L172.37 98.00L172.37 89.27ZM175.64 98.00L175.64 89.27L177.18 89.27L180.46 94.47Q180.63 94.72 180.83 95.08Q181.04 95.44 181.27 95.89Q181.50 96.34 181.72 96.86L181.55 96.86Q181.50 96.37 181.48 95.88Q181.45 95.39 181.44 94.96Q181.43 94.53 181.43 94.24L181.43 89.27L182.78 89.27L182.78 98.00L181.23 98.00L178.28 93.35Q178.05 92.97 177.82 92.59Q177.60 92.20 177.33 91.69Q177.05 91.19 176.66 90.46L176.87 90.46Q176.90 91.10 176.93 91.66Q176.96 92.22 176.98 92.65Q176.99 93.08 176.99 93.34L176.99 98.00ZM188.38 98.12Q187.20 98.12 186.30 97.57Q185.41 97.03 184.91 96.02Q184.41 95.02 184.41 93.64Q184.41 92.25 184.91 91.24Q185.42 90.24 186.31 89.69Q187.19 89.15 188.32 89.15Q189.02 89.15 189.64 89.36Q190.25 89.57 190.73 89.95Q191.22 90.34 191.53 90.87Q191.84 91.40 191.95 92.03L190.58 92.03Q190.46 91.65 190.26 91.34Q190.05 91.03 189.77 90.82Q189.48 90.60 189.12 90.49Q188.76 90.37 188.33 90.37Q187.59 90.37 187.01 90.75Q186.42 91.12 186.07 91.85Q185.73 92.58 185.73 93.63Q185.73 94.69 186.07 95.42Q186.42 96.14 187.01 96.52Q187.61 96.90 188.39 96.90Q189.09 96.90 189.61 96.61Q190.14 96.33 190.43 95.81Q190.72 95.28 190.72 94.57L191.06 94.63L188.58 94.63L188.58 93.52L192.02 93.52L192.02 94.53Q192.02 95.63 191.55 96.43Q191.08 97.24 190.26 97.68Q189.44 98.12 188.38 98.12ZM196.88 98.00L196.88 89.27L200.01 89.27Q201.02 89.27 201.69 89.64Q202.37 90.02 202.70 90.66Q203.03 91.30 203.03 92.11Q203.03 92.91 202.70 93.56Q202.36 94.20 201.69 94.57Q201.01 94.94 200.00 94.94L197.86 94.94L197.86 93.81L199.87 93.81Q200.51 93.81 200.91 93.59Q201.31 93.37 201.50 92.98Q201.68 92.59 201.68 92.11Q201.68 91.61 201.50 91.23Q201.31 90.85 200.91 90.63Q200.51 90.41 199.86 90.41L198.22 90.41L198.22 98.00ZM204.58 98.00L204.58 89.27L210.08 89.27L210.08 90.42L205.92 90.42L205.92 93.02L209.78 93.02L209.78 94.16L205.92 94.16L205.92 96.85L210.11 96.85L210.11 98.00ZM211.82 98.00L211.82 89.27L213.79 89.27L215.69 94.28Q215.78 94.50 215.88 94.84Q215.98 95.18 216.09 95.58Q216.20 95.98 216.30 96.37Q216.40 96.75 216.48 97.06L216.20 97.06Q216.27 96.77 216.37 96.39Q216.47 96.00 216.58 95.60Q216.70 95.21 216.80 94.85Q216.91 94.50 216.99 94.28L218.86 89.27L220.84 89.27L220.84 98.00L219.51 98.00L219.51 93.30Q219.51 93.03 219.52 92.66Q219.53 92.28 219.54 91.86Q219.54 91.44 219.55 91.02Q219.56 90.59 219.57 90.20L219.67 90.20Q219.55 90.62 219.41 91.08Q219.27 91.53 219.14 91.95Q219.01 92.38 218.89 92.72Q218.77 93.07 218.69 93.30L216.90 98.00L215.76 98.00L213.95 93.30Q213.86 93.08 213.75 92.74Q213.63 92.39 213.50 91.97Q213.36 91.55 213.22 91.10Q213.08 90.65 212.94 90.20L213.06 90.20Q213.07 90.55 213.08 90.97Q213.09 91.39 213.10 91.82Q213.10 92.25 213.11 92.63Q213.12 93.01 213.12 93.30L213.12 98.00ZM222.11 98.00L225.21 89.27L226.85 89.27L230.02 98.00L228.57 98.00L226.87 93.14Q226.67 92.55 226.43 91.75Q226.20 90.95 225.89 89.82L226.16 89.82Q225.86 90.96 225.62 91.77Q225.38 92.58 225.20 93.14L223.55 98.00ZM223.79 95.70L223.79 94.58L228.33 94.58L228.33 95.70ZM232.23 95.68L232.23 94.34Q232.52 93.90 232.80 93.52Q233.09 93.13 233.40 92.76Q233.71 92.38 234.06 91.98L236.51 89.27L238.21 89.27L234.50 93.35L234.41 93.34ZM231.28 98.00L231.28 89.27L232.62 89.27L232.62 92.06L232.59 94.05L232.62 94.71L232.62 98.00ZM236.66 98.00L233.69 93.73L234.53 92.70L238.24 98.00ZM238.86 98.00L241.97 89.27L243.61 89.27L246.77 98.00L245.33 98.00L243.63 93.14Q243.43 92.55 243.19 91.75Q242.95 90.95 242.64 89.82L242.91 89.82Q242.61 90.96 242.38 91.77Q242.14 92.58 241.96 93.14L240.31 98.00ZM240.55 95.70L240.55 94.58L245.09 94.58L245.09 95.70ZM248.04 98.00L248.04 89.27L250.01 89.27L251.91 94.28Q251.99 94.50 252.10 94.84Q252.20 95.18 252.31 95.58Q252.42 95.98 252.52 96.37Q252.62 96.75 252.70 97.06L252.42 97.06Q252.49 96.77 252.59 96.39Q252.69 96.00 252.80 95.60Q252.91 95.21 253.02 94.85Q253.12 94.50 253.21 94.28L255.08 89.27L257.06 89.27L257.06 98.00L255.73 98.00L255.73 93.30Q255.73 93.03 255.74 92.66Q255.74 92.28 255.75 91.86Q255.76 91.44 255.77 91.02Q255.78 90.59 255.78 90.20L255.88 90.20Q255.77 90.62 255.63 91.08Q255.49 91.53 255.36 91.95Q255.23 92.38 255.11 92.72Q254.99 93.07 254.91 93.30L253.12 98.00L251.98 98.00L250.17 93.30Q250.08 93.08 249.96 92.74Q249.85 92.39 249.71 91.97Q249.58 91.55 249.44 91.10Q249.30 90.65 249.16 90.20L249.27 90.20Q249.29 90.55 249.30 90.97Q249.30 91.39 249.31 91.82Q249.32 92.25 249.33 92.63Q249.34 93.01 249.34 93.30L249.34 98.00ZM258.32 98.00L261.43 89.27L263.07 89.27L266.23 98.00L264.79 98.00L263.09 93.14Q262.89 92.55 262.65 91.75Q262.41 90.95 262.10 89.82L262.37 89.82Q262.07 90.96 261.84 91.77Q261.60 92.58 261.42 93.14L259.77 98.00ZM260.01 95.70L260.01 94.58L264.55 94.58L264.55 95.70ZM267.50 98.00L267.50 89.27L269.04 89.27L272.33 94.47Q272.49 94.72 272.70 95.08Q272.90 95.44 273.13 95.89Q273.36 96.34 273.58 96.86L273.42 96.86Q273.36 96.37 273.34 95.88Q273.31 95.39 273.30 94.96Q273.29 94.53 273.29 94.24L273.29 89.27L274.64 89.27L274.64 98.00L273.09 98.00L270.15 93.35Q269.91 92.97 269.69 92.59Q269.46 92.20 269.19 91.69Q268.92 91.19 268.52 90.46L268.73 90.46Q268.76 91.10 268.79 91.66Q268.82 92.22 268.84 92.65Q268.85 93.08 268.85 93.34L268.85 98.00Z"/>
</g></svg>
